<svg width="266" height="94" viewBox="0 0 266 94" fill="none" xmlns="http://www.w3.org/2000/svg">
<path d="M65.9544 93.16C65.4744 93.16 65.3677 92.7867 65.6344 92.04C65.9544 91.3467 66.2477 90.7067 66.5144 90.12C66.9944 89.16 67.2344 87.6667 67.2344 85.64C67.2344 83.88 66.9144 81.9867 66.2744 79.96C65.6344 77.9333 64.381 76.0933 62.5144 74.44C59.9544 72.0933 57.0744 70.2267 53.8744 68.84C50.6744 67.4533 47.3144 66.3333 43.7944 65.48C40.3277 64.6267 36.8877 63.88 33.4744 63.24C31.3944 66.12 29.1544 68.7067 26.7544 71C24.4077 73.2933 21.901 75.0533 19.2344 76.28C17.741 76.9733 16.301 77.48 14.9144 77.8C13.5277 78.1733 12.221 78.36 10.9944 78.36C8.00771 78.36 5.55438 77.56 3.63438 75.96C1.76771 74.4133 0.834375 72.5733 0.834375 70.44C0.834375 68.4133 1.74104 66.44 3.55438 64.52C5.42104 62.5467 8.48771 60.92 12.7544 59.64C14.461 59.16 16.3544 58.8133 18.4344 58.6C20.5144 58.3333 22.6744 58.2 24.9144 58.2C26.301 58.2 27.661 58.2533 28.9944 58.36C30.381 58.4133 31.661 58.5733 32.8344 58.84C34.381 56.4933 35.821 54.0667 37.1544 51.56C38.4877 49 39.8744 46.2267 41.3144 43.24C37.101 43.3467 33.4477 42.7333 30.3544 41.4C27.261 40.0133 24.861 38.1733 23.1544 35.88C21.501 33.5867 20.6744 31.1333 20.6744 28.52C20.6744 26.3867 21.2877 24.3067 22.5144 22.28C23.741 20.2 25.661 18.3333 28.2744 16.68C30.941 14.9733 34.3277 13.64 38.4344 12.68C38.701 12.5733 38.941 12.52 39.1544 12.52C39.421 12.52 39.661 12.52 39.8744 12.52C40.6744 12.52 41.0744 12.68 41.0744 13C41.0744 13.5333 40.221 13.9067 38.5144 14.12C35.741 14.44 33.2877 15.4267 31.1544 17.08C29.0744 18.7333 27.4477 20.7067 26.2744 23C25.1544 25.2933 24.5944 27.6133 24.5944 29.96C24.5944 31.9867 25.0744 33.88 26.0344 35.64C26.9944 37.4 28.5144 38.84 30.5944 39.96C32.6744 41.0267 35.3677 41.56 38.6744 41.56C39.8477 41.56 41.101 41.48 42.4344 41.32C42.6477 40.8933 42.9944 40.04 43.4744 38.76C44.0077 37.4267 44.5944 35.9333 45.2344 34.28C45.8744 32.6267 46.4877 31.0267 47.0744 29.48C47.7144 27.9333 48.221 26.6533 48.5944 25.64C49.021 24.5733 49.2344 24.04 49.2344 24.04C51.6877 17.9067 54.1944 13.1067 56.7544 9.64C59.3677 6.12 61.8744 3.64 64.2744 2.2C66.7277 0.759996 68.9144 0.0399961 70.8344 0.0399961C72.9144 0.0399961 74.621 0.65333 75.9544 1.88C77.341 3.10666 78.0877 4.49333 78.1944 6.04C78.2477 6.52 78.2744 6.86666 78.2744 7.08C78.2744 7.29333 78.2744 7.56 78.2744 7.88C78.2744 11.0267 77.6344 14.1733 76.3544 17.32C75.1277 20.4667 73.3944 23.4533 71.1544 26.28C68.9677 29.1067 66.4344 31.6667 63.5544 33.96C60.7277 36.2533 57.6877 38.1733 54.4344 39.72C51.2344 41.2667 47.981 42.3333 44.6744 42.92C43.8744 44.52 43.1544 45.96 42.5144 47.24C41.9277 48.4667 41.261 49.8 40.5144 51.24C39.7677 52.68 38.781 54.52 37.5544 56.76C37.181 57.4533 36.8877 57.96 36.6744 58.28C36.5144 58.5467 36.2477 58.9733 35.8744 59.56C38.541 60.2 41.4477 61.1067 44.5944 62.28C47.741 63.4 50.8344 64.76 53.8744 66.36C56.9677 67.9067 59.7144 69.6133 62.1144 71.48C65.101 73.7733 67.2077 76.36 68.4344 79.24C69.7144 82.12 70.3544 84.6533 70.3544 86.84C70.3544 88.3867 70.1144 89.56 69.6344 90.36C68.941 91.5333 68.2477 92.28 67.5544 92.6C66.861 92.9733 66.3277 93.16 65.9544 93.16ZM45.7944 40.76C49.421 39.96 52.9677 38.52 56.4344 36.44C59.901 34.3067 63.021 31.7467 65.7944 28.76C68.5677 25.72 70.781 22.44 72.4344 18.92C74.0877 15.3467 74.9144 11.72 74.9144 8.04C74.9144 7.13333 74.6744 6.38666 74.1944 5.8C73.7144 5.21333 73.021 4.92 72.1144 4.92C70.8877 4.92 69.3144 5.61333 67.3944 7C65.4744 8.33333 63.2877 10.6 60.8344 13.8C58.381 16.9467 55.741 21.2933 52.9144 26.84C52.9144 26.84 52.541 27.5333 51.7944 28.92C51.101 30.3067 50.1944 32.0667 49.0744 34.2C48.0077 36.28 46.9144 38.4667 45.7944 40.76ZM9.87438 76.04C11.0477 76.04 12.301 75.88 13.6344 75.56C15.021 75.24 16.461 74.7333 17.9544 74.04C22.4344 71.8533 26.5677 68.0667 30.3544 62.68C29.1277 62.4133 27.8477 62.2267 26.5144 62.12C25.181 61.96 23.821 61.88 22.4344 61.88C20.9944 61.88 19.501 61.96 17.9544 62.12C16.461 62.28 14.9944 62.5733 13.5544 63C9.98104 63.96 7.23438 65.1867 5.31438 66.68C3.44771 68.1733 2.51438 69.6933 2.51438 71.24C2.51438 72.5733 3.18104 73.6933 4.51438 74.6C5.84771 75.56 7.63438 76.04 9.87438 76.04ZM258.091 78.2C257.291 78.0933 256.197 77.88 254.811 77.56C253.424 77.2933 252.011 76.7333 250.571 75.88C249.131 75.0267 247.904 73.72 246.891 71.96C245.877 70.2533 245.371 67.96 245.371 65.08C245.371 61.7733 246.037 58.1467 247.371 54.2C248.757 50.2 250.437 46.04 252.411 41.72C254.384 37.4 256.277 33.1333 258.091 28.92C259.531 25.56 260.251 23 260.251 21.24C260.251 19.48 259.584 18.6 258.251 18.6C256.757 18.6 254.517 19.8 251.531 22.2C248.597 24.5467 245.184 28.12 241.291 32.92C240.277 34.2 238.971 35.9867 237.371 38.28C235.771 40.52 234.064 43.0267 232.251 45.8C230.437 48.52 228.651 51.2933 226.891 54.12C225.184 56.8933 223.664 59.4533 222.331 61.8C221.051 64.1467 220.117 66.0133 219.531 67.4C218.837 69.0533 218.037 70.1733 217.131 70.76C216.224 71.4 215.371 71.72 214.571 71.72C213.877 71.72 213.264 71.5333 212.731 71.16C212.251 70.7867 212.011 70.3333 212.011 69.8C212.011 69.48 212.091 69.2133 212.251 69C212.571 68.36 213.424 66.8133 214.811 64.36C216.197 61.9067 217.771 58.6533 219.531 54.6C221.291 50.4933 222.971 45.7467 224.571 40.36C226.224 34.92 227.451 28.92 228.251 22.36C228.357 21.6133 228.411 20.8133 228.411 19.96C228.411 18.0933 228.091 16.7333 227.451 15.88C226.811 14.9733 225.957 14.52 224.891 14.52C223.717 14.52 222.384 15.0267 220.891 16.04C219.397 17.0533 217.877 18.52 216.331 20.44C213.664 23.8 211.317 26.92 209.291 29.8C207.264 32.6267 205.397 35.4533 203.691 38.28C202.037 41.1067 200.384 44.12 198.731 47.32C197.131 50.52 195.424 54.12 193.611 58.12C191.797 62.0667 189.717 66.6533 187.371 71.88C186.997 72.7333 186.357 73.3467 185.451 73.72C184.597 74.0933 183.797 74.28 183.051 74.28C182.304 74.28 181.691 74.12 181.211 73.8C180.731 73.48 180.571 73.0267 180.731 72.44C182.117 70.3067 183.611 67.6133 185.211 64.36C186.811 61.1067 188.411 57.56 190.011 53.72C191.664 49.8267 193.184 45.9067 194.571 41.96C196.011 37.96 197.237 34.2 198.251 30.68C199.264 27.1067 199.957 24.0133 200.331 21.4C200.437 20.5467 200.517 19.7467 200.571 19C200.624 18.2533 200.651 17.5333 200.651 16.84C200.651 12.7333 199.771 9.8 198.011 8.04C196.304 6.28 194.091 5.4 191.371 5.4C189.077 5.4 186.571 5.93333 183.851 7C181.184 8.01333 178.464 9.42666 175.691 11.24C172.971 13.0533 170.357 15.16 167.851 17.56C165.344 19.9067 163.131 22.44 161.211 25.16C159.291 27.8267 157.824 30.5467 156.811 33.32C156.117 35.2933 155.584 37.1867 155.211 39C154.891 40.76 154.731 42.4133 154.731 43.96C154.731 46.9467 155.264 49.48 156.331 51.56C157.451 53.64 158.917 55.2133 160.731 56.28C162.597 57.3467 164.597 57.88 166.731 57.88C167.477 57.88 168.304 57.8 169.211 57.64C170.171 57.4267 170.971 57.2133 171.611 57C173.157 56.4133 174.651 55.5067 176.091 54.28C177.531 53 178.811 51.5333 179.931 49.88C181.051 48.2267 181.931 46.5467 182.571 44.84C183.211 43.1333 183.531 41.5333 183.531 40.04C183.531 38.4933 183.104 37.2133 182.251 36.2C181.397 35.1867 180.037 34.68 178.171 34.68C177.957 34.68 177.717 34.7067 177.451 34.76C177.237 34.76 176.997 34.76 176.731 34.76H176.491C176.117 34.76 175.771 34.7067 175.451 34.6C175.131 34.44 174.971 34.2533 174.971 34.04C174.971 33.8267 175.237 33.5867 175.771 33.32C176.357 33.0533 177.397 32.92 178.891 32.92C181.291 32.92 183.077 33.64 184.251 35.08C185.477 36.4667 186.091 38.2533 186.091 40.44C186.091 42.4133 185.557 44.5467 184.491 46.84C183.424 49.1333 181.824 51.32 179.691 53.4C177.557 55.48 174.864 57.1867 171.611 58.52C169.691 59.2667 167.824 59.64 166.011 59.64C163.344 59.64 160.811 58.9733 158.411 57.64C156.011 56.2533 154.064 54.3067 152.571 51.8C151.077 49.24 150.331 46.2267 150.331 42.76C150.331 41.2133 150.491 39.5867 150.811 37.88C151.184 36.12 151.771 34.3067 152.571 32.44C154.331 28.3333 156.704 24.5467 159.691 21.08C162.731 17.56 166.091 14.52 169.771 11.96C173.451 9.34666 177.184 7.32 180.971 5.88C184.757 4.44 188.277 3.72 191.531 3.72C195.477 3.72 198.731 4.89333 201.291 7.24C203.904 9.58666 205.211 13.3733 205.211 18.6C205.211 18.9733 205.184 19.48 205.131 20.12C205.131 20.7067 205.104 21.16 205.051 21.48C204.731 24.2 204.171 26.92 203.371 29.64C202.624 32.36 201.797 34.9733 200.891 37.48C200.731 37.9067 200.597 38.36 200.491 38.84C200.437 39.2667 200.411 39.56 200.411 39.72C200.411 39.9867 200.464 40.12 200.571 40.12C200.784 40.12 201.211 39.56 201.851 38.44C203.077 36.2 204.171 34.2533 205.131 32.6C206.144 30.8933 207.131 29.3467 208.091 27.96C209.051 26.5733 210.091 25.16 211.211 23.72C212.331 22.28 213.611 20.68 215.051 18.92C216.704 16.9467 218.597 15.3733 220.731 14.2C222.864 13.0267 224.917 12.44 226.891 12.44C228.651 12.44 230.144 13.0267 231.371 14.2C232.597 15.3733 233.211 17.3733 233.211 20.2C233.211 20.52 233.211 20.7867 233.211 21C233.211 21.2133 233.184 21.5333 233.131 21.96C232.651 27.08 231.637 32.12 230.091 37.08C228.544 41.9867 226.944 46.9467 225.291 51.96C226.944 49.4 229.184 46.1467 232.011 42.2C234.837 38.2533 237.931 34.1733 241.291 29.96C245.397 24.84 249.211 21 252.731 18.44C256.251 15.88 259.157 14.6 261.451 14.6C264.331 14.6 265.771 16.36 265.771 19.88C265.771 21.2133 265.504 22.8133 264.971 24.68C264.491 26.5467 263.717 28.52 262.651 30.6C261.477 32.9467 260.171 35.6667 258.731 38.76C257.344 41.8 256.011 45 254.731 48.36C253.451 51.72 252.384 55.0267 251.531 58.28C250.731 61.48 250.331 64.44 250.331 67.16C250.331 70.0933 250.997 72.4667 252.331 74.28C253.717 76.1467 256.091 77.0267 259.451 76.92H259.931C260.731 76.92 261.131 77.08 261.131 77.4C261.131 77.6133 260.864 77.8267 260.331 78.04C259.797 78.2533 259.051 78.3067 258.091 78.2Z" fill="black"/>
<path d="M100.321 72.6C95.7879 72.6 92.0279 71.88 89.0413 70.44C86.0546 69.0533 83.8146 67.2133 82.3213 64.92C80.8813 62.5733 80.1613 60.0933 80.1613 57.48C80.1613 54.5467 81.0413 51.64 82.8013 48.76C84.5613 45.8267 87.1746 43.32 90.6413 41.24C94.1613 39.1067 98.4546 37.7733 103.521 37.24C102.775 36.2267 102.215 35.08 101.841 33.8C101.468 32.4667 101.281 31.2133 101.281 30.04C101.335 27.2133 102.135 24.7333 103.681 22.6C105.228 20.4133 107.201 18.5733 109.601 17.08C112.055 15.5867 114.668 14.4667 117.441 13.72C120.215 12.92 122.828 12.52 125.281 12.52C126.775 12.52 128.295 12.7333 129.841 13.16C131.388 13.5333 132.695 14.2267 133.761 15.24C134.828 16.2533 135.361 17.6933 135.361 19.56C135.361 21.1067 134.881 22.4933 133.921 23.72C132.961 24.9467 131.788 25.56 130.401 25.56C129.388 25.56 128.508 25.1867 127.761 24.44C127.015 23.6933 126.641 22.84 126.641 21.88C126.641 20.76 126.988 19.8533 127.681 19.16C128.428 18.4133 129.335 18.04 130.401 18.04C130.881 18.04 131.415 18.2 132.001 18.52C132.641 18.84 133.041 19.16 133.201 19.48C133.255 19.2667 133.281 18.9733 133.281 18.6C133.281 17.16 132.695 16.1467 131.521 15.56C130.348 14.9733 129.095 14.68 127.761 14.68C125.628 14.68 123.148 15.2133 120.321 16.28C117.495 17.2933 114.748 18.9733 112.081 21.32C111.121 22.1733 110.135 23.2933 109.121 24.68C108.108 26.0667 107.255 27.56 106.561 29.16C105.868 30.7067 105.521 32.28 105.521 33.88C105.521 35.1067 105.735 36.1733 106.161 37.08C106.961 37.08 107.868 37.0533 108.881 37C109.948 36.8933 111.041 36.84 112.161 36.84C113.548 36.84 114.641 37.1333 115.441 37.72C116.241 38.3067 116.641 38.9733 116.641 39.72C116.641 40.2533 116.321 40.76 115.681 41.24C115.041 41.72 114.028 41.96 112.641 41.96C110.881 41.96 109.281 41.5867 107.841 40.84C106.455 40.04 105.361 39.24 104.561 38.44C101.041 38.92 98.0546 40.2267 95.6013 42.36C93.1479 44.4933 91.2813 47.0267 90.0013 49.96C88.7213 52.84 88.0813 55.72 88.0813 58.6C88.0813 60.8933 88.5079 63.0267 89.3613 65C90.2679 66.9733 91.6279 68.5467 93.4413 69.72C95.2546 70.9467 97.5479 71.56 100.321 71.56C103.201 71.56 105.815 71.0267 108.161 69.96C110.561 68.9467 112.615 67.6133 114.321 65.96C116.028 64.3067 117.335 62.5733 118.241 60.76C119.201 58.8933 119.681 57.16 119.681 55.56C119.681 54.1733 119.175 53.0267 118.161 52.12C117.201 51.16 115.921 50.4667 114.321 50.04C112.721 49.56 111.015 49.32 109.201 49.32C107.335 49.32 105.468 49.5867 103.601 50.12C101.788 50.6 100.241 51.3733 98.9613 52.44C97.6813 53.4533 96.9079 54.76 96.6413 56.36C96.6413 56.4667 96.6146 56.6 96.5613 56.76C96.5613 56.8667 96.5613 56.9733 96.5613 57.08C96.5613 58.2533 96.9879 59.4267 97.8413 60.6C98.7479 61.72 100.135 62.76 102.001 63.72C102.481 63.9333 102.721 64.3333 102.721 64.92C102.721 65.5067 102.455 65.6667 101.921 65.4C98.9879 63.8533 96.8279 62.1733 95.4413 60.36C94.1079 58.4933 93.4413 56.7333 93.4413 55.08C93.4413 52.68 94.7213 50.6267 97.2813 48.92C99.8946 47.16 103.601 46.28 108.401 46.28H122.561C123.415 46.28 124.668 46.0933 126.321 45.72C128.028 45.3467 129.761 44.8133 131.521 44.12C133.281 43.3733 134.775 42.52 136.001 41.56C137.281 40.5467 137.921 39.4 137.921 38.12C137.921 37.4267 137.681 36.68 137.201 35.88C137.095 35.72 137.041 35.5333 137.041 35.32C137.041 35 137.175 34.84 137.441 34.84C137.655 34.84 137.841 34.9733 138.001 35.24C138.801 36.4133 139.201 37.6133 139.201 38.84C139.201 40.28 138.668 41.6133 137.601 42.84C136.588 44.0667 135.201 45.16 133.441 46.12C131.681 47.0267 129.708 47.72 127.521 48.2C125.388 48.68 123.201 48.8933 120.961 48.84C121.975 49.6933 122.721 50.6533 123.201 51.72C123.681 52.7867 123.921 53.9067 123.921 55.08C123.921 57.0533 123.335 59.08 122.161 61.16C120.988 63.1867 119.335 65.08 117.201 66.84C115.068 68.5467 112.561 69.9333 109.681 71C106.855 72.0667 103.735 72.6 100.321 72.6ZM112.641 40.6C114.401 40.6 115.281 40.2533 115.281 39.56C115.281 39.2933 115.041 39.0267 114.561 38.76C114.135 38.44 113.548 38.2533 112.801 38.2C112.481 38.1467 111.948 38.12 111.201 38.12C110.455 38.12 109.655 38.12 108.801 38.12C108.001 38.12 107.335 38.12 106.801 38.12C108.135 39.7733 110.081 40.6 112.641 40.6Z" fill="#A76192"/>
</svg>
