<svg width="1022" height="222" viewBox="0 0 1022 222" fill="none" xmlns="http://www.w3.org/2000/svg">
<path d="M155.511 221.38C154.371 221.38 154.118 220.493 154.751 218.72C155.511 217.073 156.208 215.553 156.841 214.16C157.981 211.88 158.551 208.333 158.551 203.52C158.551 199.34 157.791 194.843 156.271 190.03C154.751 185.217 151.774 180.847 147.341 176.92C141.261 171.347 134.421 166.913 126.821 163.62C119.221 160.327 111.241 157.667 102.881 155.64C94.6478 153.613 86.4778 151.84 78.3712 150.32C73.4312 157.16 68.1112 163.303 62.4111 168.75C56.8378 174.197 50.8845 178.377 44.5511 181.29C41.0045 182.937 37.5845 184.14 34.2911 184.9C30.9978 185.787 27.8945 186.23 24.9811 186.23C17.8878 186.23 12.0611 184.33 7.50115 180.53C3.06781 176.857 0.851147 172.487 0.851147 167.42C0.851147 162.607 3.00448 157.92 7.31115 153.36C11.7445 148.673 19.0278 144.81 29.1611 141.77C33.2145 140.63 37.7111 139.807 42.6511 139.3C47.5911 138.667 52.7211 138.35 58.0411 138.35C61.3345 138.35 64.5645 138.477 67.7311 138.73C71.0245 138.857 74.0645 139.237 76.8511 139.87C80.5245 134.297 83.9445 128.533 87.1112 122.58C90.2778 116.5 93.5712 109.913 96.9912 102.82C86.9845 103.073 78.3078 101.617 70.9612 98.45C63.6145 95.1567 57.9145 90.7867 53.8612 85.34C49.9345 79.8933 47.9712 74.0667 47.9712 67.86C47.9712 62.7933 49.4278 57.8533 52.3411 53.04C55.2545 48.1 59.8145 43.6667 66.0212 39.74C72.3545 35.6867 80.3978 32.52 90.1512 30.24C90.7845 29.9867 91.3545 29.86 91.8612 29.86C92.4945 29.86 93.0645 29.86 93.5711 29.86C95.4712 29.86 96.4212 30.24 96.4212 31C96.4212 32.2667 94.3945 33.1533 90.3412 33.66C83.7545 34.42 77.9278 36.7633 72.8611 40.69C67.9211 44.6167 64.0578 49.3033 61.2712 54.75C58.6112 60.1967 57.2812 65.7067 57.2812 71.28C57.2812 76.0933 58.4212 80.59 60.7011 84.77C62.9811 88.95 66.5911 92.37 71.5312 95.03C76.4712 97.5633 82.8678 98.83 90.7212 98.83C93.5078 98.83 96.4845 98.64 99.6512 98.26C100.158 97.2467 100.981 95.22 102.121 92.18C103.388 89.0133 104.781 85.4667 106.301 81.54C107.821 77.6133 109.278 73.8133 110.671 70.14C112.191 66.4667 113.394 63.4267 114.281 61.02C115.294 58.4867 115.801 57.22 115.801 57.22C121.628 42.6533 127.581 31.2533 133.661 23.02C139.868 14.66 145.821 8.76999 151.521 5.34999C157.348 1.92999 162.541 0.219991 167.101 0.219991C172.041 0.219991 176.094 1.67666 179.261 4.58999C182.554 7.50332 184.328 10.7967 184.581 14.47C184.708 15.61 184.771 16.4333 184.771 16.94C184.771 17.4467 184.771 18.08 184.771 18.84C184.771 26.3133 183.251 33.7867 180.211 41.26C177.298 48.7333 173.181 55.8267 167.861 62.54C162.668 69.2533 156.651 75.3333 149.811 80.78C143.098 86.2267 135.878 90.7867 128.151 94.46C120.551 98.1333 112.824 100.667 104.971 102.06C103.071 105.86 101.361 109.28 99.8412 112.32C98.4478 115.233 96.8645 118.4 95.0912 121.82C93.3178 125.24 90.9745 129.61 88.0612 134.93C87.1745 136.577 86.4778 137.78 85.9712 138.54C85.5912 139.173 84.9578 140.187 84.0712 141.58C90.4045 143.1 97.3078 145.253 104.781 148.04C112.254 150.7 119.601 153.93 126.821 157.73C134.168 161.403 140.691 165.457 146.391 169.89C153.484 175.337 158.488 181.48 161.401 188.32C164.441 195.16 165.961 201.177 165.961 206.37C165.961 210.043 165.391 212.83 164.251 214.73C162.604 217.517 160.958 219.29 159.311 220.05C157.664 220.937 156.398 221.38 155.511 221.38ZM107.631 96.93C116.244 95.03 124.668 91.61 132.901 86.67C141.134 81.6033 148.544 75.5233 155.131 68.43C161.718 61.21 166.974 53.42 170.901 45.06C174.828 36.5733 176.791 27.96 176.791 19.22C176.791 17.0667 176.221 15.2933 175.081 13.9C173.941 12.5067 172.294 11.81 170.141 11.81C167.228 11.81 163.491 13.4567 158.931 16.75C154.371 19.9167 149.178 25.3 143.351 32.9C137.524 40.3733 131.254 50.6967 124.541 63.87C124.541 63.87 123.654 65.5167 121.881 68.81C120.234 72.1033 118.081 76.2833 115.421 81.35C112.888 86.29 110.291 91.4833 107.631 96.93ZM22.3211 180.72C25.1078 180.72 28.0845 180.34 31.2511 179.58C34.5445 178.82 37.9645 177.617 41.5111 175.97C52.1511 170.777 61.9678 161.783 70.9612 148.99C68.0478 148.357 65.0078 147.913 61.8412 147.66C58.6745 147.28 55.4445 147.09 52.1512 147.09C48.7311 147.09 45.1845 147.28 41.5111 147.66C37.9645 148.04 34.4811 148.737 31.0612 149.75C22.5745 152.03 16.0511 154.943 11.4911 158.49C7.05781 162.037 4.84115 165.647 4.84115 169.32C4.84115 172.487 6.42448 175.147 9.59115 177.3C12.7578 179.58 17.0011 180.72 22.3211 180.72ZM154.527 164C153.134 164 151.424 163.683 149.397 163.05C147.497 162.417 145.787 161.277 144.267 159.63C142.874 157.857 142.177 155.26 142.177 151.84C142.177 148.547 142.937 145.38 144.457 142.34C146.104 139.173 147.624 136.133 149.017 133.22C148.637 133.22 148.194 133.093 147.687 132.84C147.307 132.587 147.117 132.207 147.117 131.7C147.117 131.193 147.244 130.687 147.497 130.18C148.004 129.167 148.574 128.09 149.207 126.95C149.84 125.81 150.41 124.607 150.917 123.34C152.817 119.413 154.717 115.677 156.617 112.13C158.517 108.457 160.164 105.227 161.557 102.44C162.95 99.6533 165.357 98.26 168.777 98.26H180.557C178.404 99.9067 176.44 101.743 174.667 103.77C173.02 105.67 170.93 109.217 168.397 114.41C168.397 114.41 167.954 115.297 167.067 117.07C166.18 118.843 165.04 121.123 163.647 123.91C162.38 126.57 161.05 129.293 159.657 132.08C158.39 134.867 157.314 137.21 156.427 139.11C154.78 142.657 153.704 145.507 153.197 147.66C152.69 149.687 152.437 151.587 152.437 153.36C152.437 157.54 153.83 159.63 156.617 159.63C159.657 159.63 163.33 157.16 167.637 152.22C171.184 148.04 174.667 143.037 178.087 137.21C181.507 131.383 184.737 125.367 187.777 119.16C190.944 112.953 193.73 107.38 196.137 102.44C197.53 99.6533 200 98.26 203.547 98.26H213.997C212.097 99.78 210.514 101.237 209.247 102.63C207.98 103.897 206.714 105.67 205.447 107.95C204.307 110.103 202.724 113.207 200.697 117.26C199.05 120.68 197.277 124.353 195.377 128.28C193.604 132.08 192.02 135.69 190.627 139.11C189.234 142.53 188.347 145.317 187.967 147.47C187.84 148.737 187.714 149.687 187.587 150.32C187.46 150.953 187.397 151.65 187.397 152.41C187.397 154.817 187.777 156.527 188.537 157.54C189.424 158.553 190.437 159.06 191.577 159.06C194.617 159.06 197.657 157.35 200.697 153.93C203.864 150.51 206.84 146.33 209.627 141.39C212.54 136.45 215.01 131.763 217.037 127.33C217.797 125.937 218.494 125.24 219.127 125.24C219.887 125.24 220.267 125.683 220.267 126.57C220.267 127.203 220.014 127.963 219.507 128.85C218.114 131.89 216.404 135.373 214.377 139.3C212.35 143.227 210.07 147.09 207.537 150.89C205.004 154.69 202.217 157.857 199.177 160.39C196.137 162.797 192.844 164 189.297 164C186.13 164 183.534 162.86 181.507 160.58C179.48 158.173 178.467 154.817 178.467 150.51C178.467 147.09 179.1 143.417 180.367 139.49C178.214 143.29 175.744 147.09 172.957 150.89C170.17 154.69 167.194 157.857 164.027 160.39C160.86 162.797 157.694 164 154.527 164ZM187.848 215.87C186.328 215.87 184.808 215.617 183.288 215.11C181.642 214.73 179.995 214.667 178.348 214.92C179.108 214.16 180.565 211.943 182.718 208.27C184.872 204.723 187.405 200.29 190.318 194.97C193.105 189.65 196.082 183.887 199.248 177.68C202.415 171.473 205.392 165.393 208.178 159.44C210.965 153.36 213.308 147.85 215.208 142.91C217.235 137.843 218.502 133.853 219.008 130.94C217.868 132.587 216.728 133.537 215.588 133.79C214.575 133.917 214.322 133.537 214.828 132.65C215.082 132.143 215.588 130.94 216.348 129.04C217.235 127.013 217.995 125.303 218.628 123.91C219.642 121.377 220.465 118.59 221.098 115.55C221.858 112.51 222.238 109.597 222.238 106.81C222.238 105.037 222.048 103.517 221.668 102.25C221.288 100.983 220.592 100.287 219.578 100.16C219.578 100.16 220.275 100.033 221.668 99.78C223.062 99.5267 224.518 99.2733 226.038 99.02C227.558 98.7667 228.572 98.64 229.078 98.64C229.838 98.5133 230.535 98.45 231.168 98.45C231.802 98.3233 232.372 98.26 232.878 98.26C234.018 98.26 234.778 98.7033 235.158 99.59C235.665 100.35 235.918 101.997 235.918 104.53C235.918 107.697 235.348 111.75 234.208 116.69C233.195 121.503 231.992 125.747 230.598 129.42C231.992 127.14 233.765 124.227 235.918 120.68C238.198 117.133 240.795 113.523 243.708 109.85C246.622 106.177 249.662 103.137 252.828 100.73C255.995 98.1967 259.098 96.93 262.138 96.93C262.772 96.93 263.595 97.0567 264.608 97.31C268.155 98.1967 270.625 99.97 272.018 102.63C273.538 105.163 274.298 108.203 274.298 111.75C274.298 115.55 273.538 119.73 272.018 124.29C270.625 128.85 268.725 133.347 266.318 137.78C263.912 142.087 261.252 146.013 258.338 149.56C254.792 153.993 250.548 157.54 245.608 160.2C240.668 162.86 235.602 164.19 230.408 164.19C225.722 164.19 221.352 162.987 217.298 160.58L199.248 205.99C197.475 209.79 195.765 212.387 194.118 213.78C192.472 215.173 190.382 215.87 187.848 215.87ZM224.328 160.2C227.875 160.2 231.865 158.553 236.298 155.26C240.732 151.967 244.975 147.787 249.028 142.72C253.208 137.527 256.692 132.333 259.478 127.14C261.378 123.593 262.772 120.363 263.658 117.45C264.545 114.41 264.988 111.813 264.988 109.66C264.988 104.72 263.215 102.25 259.668 102.25C258.022 102.25 255.868 103.137 253.208 104.91C250.675 106.683 247.698 109.913 244.278 114.6C240.605 119.667 236.552 126.063 232.118 133.79C227.812 141.39 223.378 149.433 218.818 157.92C220.338 159.44 222.175 160.2 224.328 160.2ZM302.207 86.86C300.307 86.86 298.724 86.2267 297.457 84.96C296.317 83.5667 295.747 81.92 295.747 80.02C295.747 77.6133 296.697 75.5233 298.597 73.75C300.497 71.9767 302.587 71.09 304.867 71.09C306.894 71.09 308.541 71.7233 309.807 72.99C311.074 74.2567 311.707 75.7767 311.707 77.55C311.707 79.9567 310.757 82.11 308.857 84.01C306.957 85.91 304.741 86.86 302.207 86.86ZM286.817 164C282.131 164 278.837 162.67 276.937 160.01C275.037 157.223 274.087 154.057 274.087 150.51C274.087 148.61 274.277 146.71 274.657 144.81C275.164 142.783 275.734 140.947 276.367 139.3L289.097 106.81C289.477 105.797 289.667 104.91 289.667 104.15C289.667 102.883 289.351 101.807 288.717 100.92C288.084 99.9067 287.641 99.21 287.387 98.83L297.837 98.45C299.737 98.3233 301.067 98.5767 301.827 99.21C302.714 99.7167 303.157 100.35 303.157 101.11C303.157 101.87 302.714 103.263 301.827 105.29L286.057 142.34C286.057 142.34 285.677 143.163 284.917 144.81C284.284 146.33 283.904 147.343 283.777 147.85C283.397 149.75 283.144 150.953 283.017 151.46C282.891 151.967 282.827 152.283 282.827 152.41C282.827 152.537 282.827 153.043 282.827 153.93C282.827 155.577 283.207 156.97 283.967 158.11C284.854 159.25 286.311 159.82 288.337 159.82C289.604 159.82 291.061 159.44 292.707 158.68C294.354 157.92 295.557 157.16 296.317 156.4C299.484 153.107 302.587 148.8 305.627 143.48C308.794 138.033 311.707 132.65 314.367 127.33C314.874 126.063 315.507 125.43 316.267 125.43C316.901 125.43 317.217 125.873 317.217 126.76C317.217 127.267 317.027 128.027 316.647 129.04C315.381 131.7 313.797 134.993 311.897 138.92C309.997 142.847 307.717 146.773 305.057 150.7C302.524 154.5 299.737 157.667 296.697 160.2C293.657 162.733 290.364 164 286.817 164ZM323.636 164C320.089 164 316.923 162.797 314.136 160.39C311.349 157.857 309.956 153.93 309.956 148.61C309.956 144.43 310.716 139.3 312.236 133.22C313.883 127.013 315.846 120.617 318.126 114.03C320.533 107.317 322.876 101.237 325.156 95.79H315.086C314.199 95.79 313.756 95.1567 313.756 93.89C313.756 93.2567 313.883 92.6867 314.136 92.18C314.516 91.6733 315.023 91.42 315.656 91.42H327.056C329.209 86.6067 331.489 81.92 333.896 77.36C336.303 72.8 338.646 68.4933 340.926 64.44C343.839 59.3733 346.943 55.5733 350.236 53.04C353.529 50.5067 356.379 49.24 358.786 49.24C360.686 49.24 362.269 50 363.536 51.52C364.803 52.9133 365.436 55.0667 365.436 57.98C365.436 59.7533 365.056 62.2233 364.296 65.39C363.536 68.43 362.333 71.66 360.686 75.08C359.799 76.8533 358.533 79.3867 356.886 82.68C355.366 85.9733 353.846 88.8867 352.326 91.42H361.446C362.333 91.42 362.776 92.0533 362.776 93.32C362.776 93.8267 362.649 94.3967 362.396 95.03C362.143 95.5367 361.763 95.79 361.256 95.79H350.046C346.879 101.237 343.269 106.557 339.216 111.75C335.163 116.943 330.349 122.137 324.776 127.33C324.396 128.47 323.889 130.117 323.256 132.27C322.749 134.423 322.243 136.64 321.736 138.92C321.356 141.073 320.976 142.91 320.596 144.43C320.343 145.95 320.216 146.71 320.216 146.71C319.836 148.357 319.646 149.877 319.646 151.27C319.646 153.93 320.279 155.893 321.546 157.16C322.813 158.3 324.269 158.87 325.916 158.87C326.929 158.87 327.943 158.743 328.956 158.49C329.969 158.11 331.109 157.477 332.376 156.59C336.809 153.423 340.673 149.117 343.966 143.67C347.386 138.223 350.363 132.967 352.896 127.9C353.656 126.38 354.416 125.62 355.176 125.62C355.683 125.62 355.936 126 355.936 126.76C355.936 127.14 355.746 127.837 355.366 128.85C352.579 134.677 350.236 139.363 348.336 142.91C346.436 146.457 344.599 149.433 342.826 151.84C341.053 154.12 338.963 156.4 336.556 158.68C334.783 160.453 332.756 161.783 330.476 162.67C328.196 163.557 325.916 164 323.636 164ZM338.646 91.42H348.336C350.109 88.1267 351.756 84.8967 353.276 81.73C354.923 78.5633 356.379 75.3967 357.646 72.23C358.533 70.2033 359.293 67.9233 359.926 65.39C360.559 62.8567 360.876 60.8933 360.876 59.5C360.876 57.6 360.433 56.65 359.546 56.65C358.913 56.65 357.963 57.22 356.696 58.36C355.556 59.3733 354.099 61.1467 352.326 63.68C350.046 66.8467 347.766 70.9633 345.486 76.03C343.333 80.97 341.053 86.1 338.646 91.42ZM326.296 121.25C329.969 117.45 333.389 113.397 336.556 109.09C339.849 104.783 342.889 100.35 345.676 95.79H336.746C334.719 100.477 332.819 105.037 331.046 109.47C329.273 113.903 327.689 117.83 326.296 121.25ZM393.589 164.57C392.195 164.697 390.612 164.38 388.839 163.62C387.065 162.86 385.482 161.467 384.089 159.44C382.822 157.413 382.189 154.563 382.189 150.89C382.189 147.85 382.759 144.177 383.899 139.87C382.379 142.277 380.415 145.253 378.009 148.8C375.602 152.22 373.005 155.26 370.219 157.92C367.812 160.2 365.532 161.847 363.379 162.86C361.225 163.873 359.262 164.38 357.489 164.38C354.195 164.38 351.535 162.923 349.509 160.01C347.482 156.97 346.469 153.043 346.469 148.23C346.469 143.163 347.735 137.4 350.269 130.94C352.802 124.48 356.919 117.767 362.619 110.8C366.292 106.367 370.725 102.82 375.919 100.16C381.239 97.3733 386.432 95.98 391.499 95.98C394.412 95.98 397.199 96.4867 399.859 97.5C402.519 98.3867 404.862 99.9067 406.889 102.06C407.775 102.947 408.219 103.96 408.219 105.1C408.219 105.86 407.902 106.493 407.269 107C406.635 107.507 405.812 107.633 404.799 107.38C403.405 102.947 400.429 100.73 395.869 100.73C393.715 100.73 391.245 101.427 388.459 102.82C384.152 105.1 379.655 108.837 374.969 114.03C370.409 119.223 366.419 124.607 362.999 130.18C362.492 130.94 361.669 132.397 360.529 134.55C359.515 136.703 358.502 139.11 357.489 141.77C356.475 144.43 355.779 147.027 355.399 149.56C355.272 150.32 355.209 150.89 355.209 151.27C355.209 151.523 355.209 151.967 355.209 152.6C355.209 156.78 356.792 158.87 359.959 158.87C363.759 158.87 368.065 156.083 372.879 150.51C376.172 146.457 379.149 142.213 381.809 137.78C384.469 133.347 387.192 128.597 389.979 123.53C391.879 120.11 393.652 117.26 395.299 114.98C396.945 112.7 399.289 111.56 402.329 111.56C403.722 111.56 405.115 111.75 406.509 112.13C407.902 112.51 409.359 112.573 410.879 112.32C409.865 113.333 408.472 115.233 406.699 118.02C405.052 120.807 403.279 123.973 401.379 127.52C399.479 131.067 397.769 134.677 396.249 138.35C394.729 142.023 393.652 145.19 393.019 147.85C392.892 148.61 392.702 149.687 392.449 151.08C392.322 152.473 392.259 153.487 392.259 154.12C392.259 157.667 393.272 159.44 395.299 159.44C397.325 159.44 399.479 158.237 401.759 155.83C404.165 153.423 406.509 150.447 408.789 146.9C411.069 143.353 413.159 139.807 415.059 136.26C416.959 132.587 418.479 129.61 419.619 127.33C420.125 126.063 420.885 125.43 421.899 125.43C422.532 125.43 422.849 125.873 422.849 126.76C422.849 127.14 422.659 127.837 422.279 128.85C420.759 132.017 418.922 135.627 416.769 139.68C414.615 143.607 412.272 147.47 409.739 151.27C407.205 154.943 404.545 158.047 401.759 160.58C399.099 162.987 396.375 164.317 393.589 164.57ZM882.733 185.85C880.833 185.597 878.237 185.09 874.943 184.33C871.65 183.697 868.293 182.367 864.873 180.34C861.453 178.313 858.54 175.21 856.133 171.03C853.727 166.977 852.523 161.53 852.523 154.69C852.523 146.837 854.107 138.223 857.273 128.85C860.567 119.35 864.557 109.47 869.243 99.21C873.93 88.95 878.427 78.8167 882.733 68.81C886.153 60.83 887.863 54.75 887.863 50.57C887.863 46.39 886.28 44.3 883.113 44.3C879.567 44.3 874.247 47.15 867.153 52.85C860.187 58.4233 852.08 66.91 842.833 78.31C840.427 81.35 837.323 85.5933 833.523 91.04C829.723 96.36 825.67 102.313 821.363 108.9C817.057 115.36 812.813 121.947 808.633 128.66C804.58 135.247 800.97 141.327 797.803 146.9C794.763 152.473 792.547 156.907 791.153 160.2C789.507 164.127 787.607 166.787 785.453 168.18C783.3 169.7 781.273 170.46 779.373 170.46C777.727 170.46 776.27 170.017 775.003 169.13C773.863 168.243 773.293 167.167 773.293 165.9C773.293 165.14 773.483 164.507 773.863 164C774.623 162.48 776.65 158.807 779.943 152.98C783.237 147.153 786.973 139.427 791.153 129.8C795.333 120.047 799.323 108.773 803.123 95.98C807.05 83.06 809.963 68.81 811.863 53.23C812.117 51.4567 812.243 49.5567 812.243 47.53C812.243 43.0967 811.483 39.8667 809.963 37.84C808.443 35.6867 806.417 34.61 803.883 34.61C801.097 34.61 797.93 35.8133 794.383 38.22C790.837 40.6267 787.227 44.11 783.553 48.67C777.22 56.65 771.647 64.06 766.833 70.9C762.02 77.6133 757.587 84.3267 753.533 91.04C749.607 97.7533 745.68 104.91 741.753 112.51C737.953 120.11 733.9 128.66 729.593 138.16C725.287 147.533 720.347 158.427 714.773 170.84C713.887 172.867 712.367 174.323 710.213 175.21C708.187 176.097 706.287 176.54 704.513 176.54C702.74 176.54 701.283 176.16 700.143 175.4C699.003 174.64 698.623 173.563 699.003 172.17C702.297 167.103 705.843 160.707 709.643 152.98C713.443 145.253 717.243 136.83 721.043 127.71C724.97 118.463 728.58 109.153 731.873 99.78C735.293 90.28 738.207 81.35 740.613 72.99C743.02 64.5033 744.667 57.1567 745.553 50.95C745.807 48.9233 745.997 47.0233 746.123 45.25C746.25 43.4767 746.313 41.7667 746.313 40.12C746.313 30.3667 744.223 23.4 740.043 19.22C735.99 15.04 730.733 12.95 724.273 12.95C718.827 12.95 712.873 14.2167 706.413 16.75C700.08 19.1567 693.62 22.5133 687.033 26.82C680.573 31.1267 674.367 36.13 668.413 41.83C662.46 47.4033 657.203 53.42 652.643 59.88C648.083 66.2133 644.6 72.6733 642.193 79.26C640.547 83.9467 639.28 88.4433 638.393 92.75C637.633 96.93 637.253 100.857 637.253 104.53C637.253 111.623 638.52 117.64 641.053 122.58C643.713 127.52 647.197 131.257 651.503 133.79C655.937 136.323 660.687 137.59 665.753 137.59C667.527 137.59 669.49 137.4 671.643 137.02C673.923 136.513 675.823 136.007 677.343 135.5C681.017 134.107 684.563 131.953 687.983 129.04C691.403 126 694.443 122.517 697.103 118.59C699.763 114.663 701.853 110.673 703.373 106.62C704.893 102.567 705.653 98.7667 705.653 95.22C705.653 91.5467 704.64 88.5067 702.613 86.1C700.587 83.6933 697.357 82.49 692.923 82.49C692.417 82.49 691.847 82.5533 691.213 82.68C690.707 82.68 690.137 82.68 689.503 82.68H688.933C688.047 82.68 687.223 82.5533 686.463 82.3C685.703 81.92 685.323 81.4767 685.323 80.97C685.323 80.4633 685.957 79.8933 687.223 79.26C688.617 78.6267 691.087 78.31 694.633 78.31C700.333 78.31 704.577 80.02 707.363 83.44C710.277 86.7333 711.733 90.9767 711.733 96.17C711.733 100.857 710.467 105.923 707.933 111.37C705.4 116.817 701.6 122.01 696.533 126.95C691.467 131.89 685.07 135.943 677.343 139.11C672.783 140.883 668.35 141.77 664.043 141.77C657.71 141.77 651.693 140.187 645.993 137.02C640.293 133.727 635.67 129.103 632.123 123.15C628.577 117.07 626.803 109.913 626.803 101.68C626.803 98.0067 627.183 94.1433 627.943 90.09C628.83 85.91 630.223 81.6033 632.123 77.17C636.303 67.4167 641.94 58.4233 649.033 50.19C656.253 41.83 664.233 34.61 672.973 28.53C681.713 22.3233 690.58 17.51 699.573 14.09C708.567 10.67 716.927 8.95999 724.653 8.95999C734.027 8.95999 741.753 11.7467 747.833 17.32C754.04 22.8933 757.143 31.8867 757.143 44.3C757.143 45.1867 757.08 46.39 756.953 47.91C756.953 49.3033 756.89 50.38 756.763 51.14C756.003 57.6 754.673 64.06 752.773 70.52C751 76.98 749.037 83.1867 746.883 89.14C746.503 90.1533 746.187 91.23 745.933 92.37C745.807 93.3833 745.743 94.08 745.743 94.46C745.743 95.0933 745.87 95.41 746.123 95.41C746.63 95.41 747.643 94.08 749.163 91.42C752.077 86.1 754.673 81.4767 756.953 77.55C759.36 73.4967 761.703 69.8233 763.983 66.53C766.263 63.2367 768.733 59.88 771.393 56.46C774.053 53.04 777.093 49.24 780.513 45.06C784.44 40.3733 788.937 36.6367 794.003 33.85C799.07 31.0633 803.947 29.67 808.633 29.67C812.813 29.67 816.36 31.0633 819.273 33.85C822.187 36.6367 823.643 41.3867 823.643 48.1C823.643 48.86 823.643 49.4933 823.643 50C823.643 50.5067 823.58 51.2667 823.453 52.28C822.313 64.44 819.907 76.41 816.233 88.19C812.56 99.8433 808.76 111.623 804.833 123.53C808.76 117.45 814.08 109.723 820.793 100.35C827.507 90.9767 834.853 81.2867 842.833 71.28C852.587 59.12 861.643 50 870.003 43.92C878.363 37.84 885.267 34.8 890.713 34.8C897.553 34.8 900.973 38.98 900.973 47.34C900.973 50.5067 900.34 54.3067 899.073 58.74C897.933 63.1733 896.097 67.86 893.563 72.8C890.777 78.3733 887.673 84.8333 884.253 92.18C880.96 99.4 877.793 107 874.753 114.98C871.713 122.96 869.18 130.813 867.153 138.54C865.253 146.14 864.303 153.17 864.303 159.63C864.303 166.597 865.887 172.233 869.053 176.54C872.347 180.973 877.983 183.063 885.963 182.81H887.103C889.003 182.81 889.953 183.19 889.953 183.95C889.953 184.457 889.32 184.963 888.053 185.47C886.787 185.977 885.013 186.103 882.733 185.85ZM928.891 164.57C927.498 164.697 925.915 164.38 924.141 163.62C922.368 162.86 920.785 161.467 919.391 159.44C918.125 157.413 917.491 154.563 917.491 150.89C917.491 147.85 918.061 144.177 919.201 139.87C917.681 142.277 915.718 145.253 913.311 148.8C910.905 152.22 908.308 155.26 905.521 157.92C903.115 160.2 900.835 161.847 898.681 162.86C896.528 163.873 894.565 164.38 892.791 164.38C889.498 164.38 886.838 162.923 884.811 160.01C882.785 156.97 881.771 153.043 881.771 148.23C881.771 143.163 883.038 137.4 885.571 130.94C888.105 124.48 892.221 117.767 897.921 110.8C901.595 106.367 906.028 102.82 911.221 100.16C916.541 97.3733 921.735 95.98 926.801 95.98C929.715 95.98 932.501 96.4867 935.161 97.5C937.821 98.3867 940.165 99.9067 942.191 102.06C943.078 102.947 943.521 103.96 943.521 105.1C943.521 105.86 943.205 106.493 942.571 107C941.938 107.507 941.115 107.633 940.101 107.38C938.708 102.947 935.731 100.73 931.171 100.73C929.018 100.73 926.548 101.427 923.761 102.82C919.455 105.1 914.958 108.837 910.271 114.03C905.711 119.223 901.721 124.607 898.301 130.18C897.795 130.94 896.971 132.397 895.831 134.55C894.818 136.703 893.805 139.11 892.791 141.77C891.778 144.43 891.081 147.027 890.701 149.56C890.575 150.32 890.511 150.89 890.511 151.27C890.511 151.523 890.511 151.967 890.511 152.6C890.511 156.78 892.095 158.87 895.261 158.87C899.061 158.87 903.368 156.083 908.181 150.51C911.475 146.457 914.451 142.213 917.111 137.78C919.771 133.347 922.495 128.597 925.281 123.53C927.181 120.11 928.955 117.26 930.601 114.98C932.248 112.7 934.591 111.56 937.631 111.56C939.025 111.56 940.418 111.75 941.811 112.13C943.205 112.51 944.661 112.573 946.181 112.32C945.168 113.333 943.775 115.233 942.001 118.02C940.355 120.807 938.581 123.973 936.681 127.52C934.781 131.067 933.071 134.677 931.551 138.35C930.031 142.023 928.955 145.19 928.321 147.85C928.195 148.61 928.005 149.687 927.751 151.08C927.625 152.473 927.561 153.487 927.561 154.12C927.561 157.667 928.575 159.44 930.601 159.44C932.628 159.44 934.781 158.237 937.061 155.83C939.468 153.423 941.811 150.447 944.091 146.9C946.371 143.353 948.461 139.807 950.361 136.26C952.261 132.587 953.781 129.61 954.921 127.33C955.428 126.063 956.188 125.43 957.201 125.43C957.835 125.43 958.151 125.873 958.151 126.76C958.151 127.14 957.961 127.837 957.581 128.85C956.061 132.017 954.225 135.627 952.071 139.68C949.918 143.607 947.575 147.47 945.041 151.27C942.508 154.943 939.848 158.047 937.061 160.58C934.401 162.987 931.678 164.317 928.891 164.57ZM944.958 170.46C942.172 170.46 939.892 169.573 938.118 167.8C937.738 167.42 937.548 167.04 937.548 166.66C937.548 165.9 937.992 165.203 938.878 164.57C939.765 164.063 940.525 164.127 941.158 164.76C942.172 165.773 943.565 166.28 945.338 166.28C946.985 166.28 948.948 165.773 951.228 164.76C953.762 163.493 956.675 160.833 959.968 156.78C963.262 152.727 966.428 147.913 969.468 142.34C972.508 136.64 974.915 130.877 976.688 125.05C977.195 122.517 977.575 120.173 977.828 118.02C978.208 115.867 978.398 113.777 978.398 111.75C978.398 109.85 978.145 108.267 977.638 107C977.132 105.733 976.182 105.1 974.788 105.1C973.775 105.1 972.445 105.733 970.798 107C969.278 108.267 967.632 110.357 965.858 113.27C965.352 114.157 964.338 116.057 962.818 118.97C961.298 121.883 959.715 124.923 958.068 128.09C956.548 131.13 955.282 133.473 954.268 135.12C953.508 136.26 952.875 136.83 952.368 136.83C951.862 136.83 951.608 136.387 951.608 135.5C951.608 134.613 951.862 133.663 952.368 132.65C953.128 131.13 954.142 129.04 955.408 126.38C956.802 123.72 958.258 120.933 959.778 118.02C961.425 114.98 963.008 112.257 964.528 109.85C966.175 107.317 967.632 105.48 968.898 104.34C970.165 103.327 971.685 102.377 973.458 101.49C975.232 100.603 977.005 100.16 978.778 100.16C982.452 100.16 984.985 101.49 986.378 104.15C987.772 106.81 988.468 109.977 988.468 113.65C988.468 117.07 988.088 120.617 987.328 124.29C989.608 119.983 992.142 115.803 994.928 111.75C997.715 107.697 1000.44 104.34 1003.1 101.68C1005.88 98.8933 1008.16 97.2467 1009.94 96.74C1010.32 96.6133 1010.7 96.55 1011.08 96.55C1011.46 96.55 1011.84 96.55 1012.22 96.55C1013.74 96.55 1015 96.93 1016.02 97.69C1017.16 98.3233 1017.73 99.4 1017.73 100.92C1017.73 102.947 1016.9 104.72 1015.26 106.24C1013.61 107.76 1011.84 108.52 1009.94 108.52C1007.15 108.52 1005.57 107.38 1005.19 105.1C1001.26 108.773 997.335 113.777 993.408 120.11C989.608 126.317 986.632 132.46 984.478 138.54C984.098 140.947 983.908 143.29 983.908 145.57C983.908 149.37 984.415 152.537 985.428 155.07C986.442 157.477 987.835 158.933 989.608 159.44C990.115 159.567 990.812 159.63 991.698 159.63C995.245 159.63 998.538 157.983 1001.58 154.69C1004.74 151.397 1007.72 147.28 1010.51 142.34C1013.42 137.273 1016.14 132.27 1018.68 127.33C1019.18 126.063 1019.88 125.43 1020.77 125.43C1021.15 125.43 1021.4 125.747 1021.53 126.38C1021.78 126.887 1021.72 127.52 1021.34 128.28C1019.82 131.447 1018.04 135.057 1016.02 139.11C1014.12 143.163 1011.84 147.09 1009.18 150.89C1006.64 154.69 1003.6 157.857 1000.06 160.39C996.638 162.797 992.648 164 988.088 164C985.048 164 982.515 163.113 980.488 161.34C978.462 159.44 976.878 157.16 975.738 154.5C974.725 151.713 974.218 148.99 974.218 146.33V141.58C971.052 147.787 967.505 153.423 963.578 158.49C959.778 163.43 956.042 166.787 952.368 168.56C949.835 169.827 947.365 170.46 944.958 170.46Z" fill="black"/>
<path d="M508.031 172.55C497.264 172.55 488.334 170.84 481.241 167.42C474.148 164.127 468.828 159.757 465.281 154.31C461.861 148.737 460.151 142.847 460.151 136.64C460.151 129.673 462.241 122.77 466.421 115.93C470.601 108.963 476.808 103.01 485.041 98.07C493.401 93.0033 503.598 89.8367 515.631 88.57C513.858 86.1633 512.528 83.44 511.641 80.4C510.754 77.2333 510.311 74.2567 510.311 71.47C510.438 64.7567 512.338 58.8667 516.011 53.8C519.684 48.6067 524.371 44.2367 530.071 40.69C535.898 37.1433 542.104 34.4833 548.691 32.71C555.278 30.81 561.484 29.86 567.311 29.86C570.858 29.86 574.468 30.3667 578.141 31.38C581.814 32.2667 584.918 33.9133 587.451 36.32C589.984 38.7267 591.251 42.1467 591.251 46.58C591.251 50.2533 590.111 53.5467 587.831 56.46C585.551 59.3733 582.764 60.83 579.471 60.83C577.064 60.83 574.974 59.9433 573.201 58.17C571.428 56.3967 570.541 54.37 570.541 52.09C570.541 49.43 571.364 47.2767 573.011 45.63C574.784 43.8567 576.938 42.97 579.471 42.97C580.611 42.97 581.878 43.35 583.271 44.11C584.791 44.87 585.741 45.63 586.121 46.39C586.248 45.8833 586.311 45.1867 586.311 44.3C586.311 40.88 584.918 38.4733 582.131 37.08C579.344 35.6867 576.368 34.99 573.201 34.99C568.134 34.99 562.244 36.2567 555.531 38.79C548.818 41.1967 542.294 45.1867 535.961 50.76C533.681 52.7867 531.338 55.4467 528.931 58.74C526.524 62.0333 524.498 65.58 522.851 69.38C521.204 73.0533 520.381 76.79 520.381 80.59C520.381 83.5033 520.888 86.0367 521.901 88.19C523.801 88.19 525.954 88.1267 528.361 88C530.894 87.7467 533.491 87.62 536.151 87.62C539.444 87.62 542.041 88.3167 543.941 89.71C545.841 91.1033 546.791 92.6867 546.791 94.46C546.791 95.7267 546.031 96.93 544.511 98.07C542.991 99.21 540.584 99.78 537.291 99.78C533.111 99.78 529.311 98.8933 525.891 97.12C522.598 95.22 520.001 93.32 518.101 91.42C509.741 92.56 502.648 95.6633 496.821 100.73C490.994 105.797 486.561 111.813 483.521 118.78C480.481 125.62 478.961 132.46 478.961 139.3C478.961 144.747 479.974 149.813 482.001 154.5C484.154 159.187 487.384 162.923 491.691 165.71C495.998 168.623 501.444 170.08 508.031 170.08C514.871 170.08 521.078 168.813 526.651 166.28C532.351 163.873 537.228 160.707 541.281 156.78C545.334 152.853 548.438 148.737 550.591 144.43C552.871 139.997 554.011 135.88 554.011 132.08C554.011 128.787 552.808 126.063 550.401 123.91C548.121 121.63 545.081 119.983 541.281 118.97C537.481 117.83 533.428 117.26 529.121 117.26C524.688 117.26 520.254 117.893 515.821 119.16C511.514 120.3 507.841 122.137 504.801 124.67C501.761 127.077 499.924 130.18 499.291 133.98C499.291 134.233 499.228 134.55 499.101 134.93C499.101 135.183 499.101 135.437 499.101 135.69C499.101 138.477 500.114 141.263 502.141 144.05C504.294 146.71 507.588 149.18 512.021 151.46C513.161 151.967 513.731 152.917 513.731 154.31C513.731 155.703 513.098 156.083 511.831 155.45C504.864 151.777 499.734 147.787 496.441 143.48C493.274 139.047 491.691 134.867 491.691 130.94C491.691 125.24 494.731 120.363 500.811 116.31C507.018 112.13 515.821 110.04 527.221 110.04H560.851C562.878 110.04 565.854 109.597 569.781 108.71C573.834 107.823 577.951 106.557 582.131 104.91C586.311 103.137 589.858 101.11 592.771 98.83C595.811 96.4233 597.331 93.7 597.331 90.66C597.331 89.0133 596.761 87.24 595.621 85.34C595.368 84.96 595.241 84.5167 595.241 84.01C595.241 83.25 595.558 82.87 596.191 82.87C596.698 82.87 597.141 83.1867 597.521 83.82C599.421 86.6067 600.371 89.4567 600.371 92.37C600.371 95.79 599.104 98.9567 596.571 101.87C594.164 104.783 590.871 107.38 586.691 109.66C582.511 111.813 577.824 113.46 572.631 114.6C567.564 115.74 562.371 116.247 557.051 116.12C559.458 118.147 561.231 120.427 562.371 122.96C563.511 125.493 564.081 128.153 564.081 130.94C564.081 135.627 562.688 140.44 559.901 145.38C557.114 150.193 553.188 154.69 548.121 158.87C543.054 162.923 537.101 166.217 530.261 168.75C523.548 171.283 516.138 172.55 508.031 172.55ZM537.291 96.55C541.471 96.55 543.561 95.7267 543.561 94.08C543.561 93.4467 542.991 92.8133 541.851 92.18C540.838 91.42 539.444 90.9767 537.671 90.85C536.911 90.7233 535.644 90.66 533.871 90.66C532.098 90.66 530.198 90.66 528.171 90.66C526.271 90.66 524.688 90.66 523.421 90.66C526.588 94.5867 531.211 96.55 537.291 96.55Z" fill="#A76192"/>
</svg>
